# xmcd
# 
# Track frame offsets:
#     150
#     19526
#     36223
#     55630
#     74354
#     88539
#     120094
#     135644
#     147979
#     162605
# 
# Disc length: 2613
# 
# Revision: 1
# Processed by: cddbd v1.5.2PL0 Copyright (c) Steve Scherf et al.
# Submitted via: fre:ac v1.0.31
# 
DISCID=7f0a330a
DTITLE=Robert Francis - One By One
DYEAR=2007
DGENRE=Folk/Rock
TTITLE0=Mama Don't Come
TTITLE1=Good Hearted Man
TTITLE2=Little Girl
TTITLE3=Love for Me
TTITLE4=Dakota
TTITLE5=One By One
TTITLE6=Alice
TTITLE7=Pilgrims
TTITLE8=The Devil's Mountains
TTITLE9=All of My Trains
EXTD=
EXTT0=
EXTT1=
EXTT2=
EXTT3=
EXTT4=
EXTT5=
EXTT6=
EXTT7=
EXTT8=
EXTT9=
PLAYORDER=
